<svg width="256" height="187" viewBox="0 0 256 187" fill="none" xmlns="http://www.w3.org/2000/svg">
<path d="M0.148438 186.38H8.14844V97.3795C8.14844 96.2749 7.25301 95.3795 6.14844 95.3795H2.14844C1.04387 95.3795 0.148438 96.2749 0.148438 97.3795V186.38Z" fill="#775DA6"/>
<path d="M27.1484 186.38H35.1484V102.38C35.1484 101.275 34.253 100.38 33.1484 100.38H29.1484C28.0439 100.38 27.1484 101.275 27.1484 102.38V186.38Z" fill="#775DA6"/>
<path d="M54.1484 186.38H62.1484V114.38C62.1484 113.275 61.253 112.38 60.1484 112.38H56.1484C55.0439 112.38 54.1484 113.275 54.1484 114.38V186.38Z" fill="#775DA6"/>
<path d="M81.1484 186.38H89.1484V118.38C89.1484 117.275 88.253 116.38 87.1484 116.38H83.1484C82.0439 116.38 81.1484 117.275 81.1484 118.38V186.38Z" fill="#775DA6"/>
<path d="M108.148 186.38H116.148V59.3795C116.148 58.2749 115.253 57.3795 114.148 57.3795H110.148C109.044 57.3795 108.148 58.2749 108.148 59.3795V186.38Z" fill="#775DA6"/>
<path d="M135.148 186.38H143.148V86.3795C143.148 85.2749 142.253 84.3795 141.148 84.3795H137.148C136.044 84.3795 135.148 85.2749 135.148 86.3795V186.38Z" fill="#775DA6"/>
<path d="M162.148 186.38H170.148V61.3795C170.148 60.2749 169.253 59.3795 168.148 59.3795H164.148C163.044 59.3795 162.148 60.2749 162.148 61.3795V186.38Z" fill="#775DA6"/>
<path d="M189.148 186.38H197.148V36.3795C197.148 35.2749 196.253 34.3795 195.148 34.3795H191.148C190.044 34.3795 189.148 35.2749 189.148 36.3795V186.38Z" fill="#775DA6"/>
<path d="M216.148 186.38H224.148V2.37952C224.148 1.27495 223.253 0.379517 222.148 0.379517H218.148C217.044 0.379517 216.148 1.27495 216.148 2.37952V186.38Z" fill="#775DA6"/>
<path d="M243.148 186.38H251.148V18.8302C251.148 17.7256 250.253 16.8302 249.148 16.8302H245.148C244.044 16.8302 243.148 17.7256 243.148 18.8302V186.38Z" fill="#775DA6"/>
</svg>
