<svg width="1073" height="205" viewBox="0 0 1073 205" fill="none" xmlns="http://www.w3.org/2000/svg">
<path d="M1240.06 11.6724H1213.04L1171.28 1.67236L1097.26 40.5723L1033.99 61.2163H998.855L960.713 48.1824L906.213 72.5703L839.849 81.7903L741.401 72.4773L721.041 48.1614L669.027 36.5105L632.639 53.0923H604.149L568.949 48.1614L528.599 60.6553L494.317 53.0923L458.985 57.7183L426.409 77.1184H322.201L281.829 60.6514L244.711 65.0173L210.111 77.1174L145.403 36.2234H100.252L67.5083 18.4395L-4.79199 52.7153L-75.7549 48.1753L-110.29 52.7153L-149.549 37.5945L-177.336 48.1753L-223.801 18.2754L-256.179 11.2173L-361.737 25.6533H-427.628L-497.306 53.1145H-574.932L-605.385 35.7395H-645.075L-717.503 4.32227L-755.553 13.3933L-828.28 4.32227L-860.98 8.28027L-891.037 5.89233V233.636H1239.46L1240.06 11.6724Z" fill="#F5F6FA"/>
<path d="M1240 11.5745H1211.79L1172.72 1.30835L1097.17 40.5664L1034.87 61.2664H999.828L960.868 47.8523L905.199 72.2395L838.86 81.5635L742.22 72.2395L720.541 47.8523L670.571 36.2974L634.019 52.8875H603.953L568.853 47.8523L529.139 61.2654L495 52.8865L459.546 57.1523L427.446 77.3713H322.346L282.946 61.2664L246.865 64.4663L210.629 77.3665L145.158 36.2925H100.289L67.0713 17.4683L-4.19092 52.8823L-74.75 47.8474L-110.12 52.8823L-149.08 36.2925L-176.991 47.8474L-223.817 17.4683L-256.563 10.9065L-361.521 25.7654H-427.788L-497.002 52.8823H-575.025L-606.203 36.2925H-644.719L-716.607 4.77637L-754.974 17.4673L-827.299 4.77637L-860.826 10.9053L-892.002 4.77637" stroke="#CCD7E3" stroke-width="2"/>
<path d="M-891.993 83.1404H-863.444L-823.322 74.5173L-750.769 112.7L-686.004 135.106H-651.185L-613.385 120.581L-558.53 145.292L-472.196 171.631L-393.669 145.292L-372.417 122.045L-322.537 109.645L-285.137 126.125H-255.604L-220.165 121.309L-180.728 134.034L-146.258 126.125L-111.002 130.281L-42.8369 165.22H-0.0488281L26.2871 182.22L101.394 150.395H138.524L204.609 108.825H249.355L281.898 91.3672L352.841 125.435L424.227 120.906L458.92 125.435L496.8 108.826L525.454 120.907L574.475 87.4014L605.169 82.5593L710.409 99.4373H778.423L845.216 125.437H924.599L956.013 109.601H993.813L1064.83 77.4153L1102.25 88.6843L1174.53 77.4153L1208.63 82.5603L1239.04 77.4153V233.637H-891.507L-891.993 83.1404Z" fill="#D1E6FA"/>
<path d="M-891.993 84.4224H-863.788L-824.715 74.1562L-749.169 113.414L-686.869 134.114H-651.822L-612.862 120.7L-557.194 145.087L-472.471 171.88L-394.215 145.087L-372.536 120.7L-322.565 109.145L-286.013 125.735H-255.948L-220.848 120.7L-181.134 134.114L-146.995 125.735L-111.541 130.001L-44.0488 165.101H-1.27783L27.4443 182.195L68.563 165.101L101.263 150.222H137.363L202.834 109.148H247.704L280.922 90.3242L352.183 125.738L422.743 120.703L458.113 125.738L497.072 109.148L524.984 120.703L571.809 90.3242L604.555 83.7622L709.514 98.6133H775.781L844.995 125.73H923.018L954.196 109.14H992.712L1064.6 77.6243L1102.97 90.3152L1175.29 77.6243L1208.82 83.7532L1240 77.6243" stroke="#0058FF" stroke-width="2"/>
</svg>
