<svg width="339" height="156" viewBox="0 0 339 156" fill="none" xmlns="http://www.w3.org/2000/svg">
<path opacity="0.12" fill-rule="evenodd" clip-rule="evenodd" d="M337.148 198.38H1.14844V62.7654C2.56912 62.4965 5.21597 65.2386 8.18937 65.3099C10.4222 65.3635 12.6912 62.4268 15.5808 63.7828C17.1763 64.5316 18.795 67.2392 20.8791 67.548C22.643 67.8093 24.8301 65.6956 26.6919 66.0014C29.1295 66.4018 29.7762 84.897 31.6977 84.8402C32.9845 84.8022 35.4567 80.0219 35.9789 80.5497C39.605 84.2136 41.9685 93.2252 42.1584 93.9634C49.4033 122.135 44.5913 78.5738 54.8182 100.898C55.417 102.205 58.109 98.8948 58.8631 100.108C62.922 106.64 60.9263 101.903 67.6969 105.014C72.3497 107.152 72.1258 105.723 76.1317 102.427C76.3201 102.272 80.8495 120.1 86.8922 117.478C89.3648 116.406 92.1814 116.337 94.4337 114.814C100.995 110.377 103.932 130.52 109.962 125.305C111.008 124.401 112.534 128.123 113.582 127.223C114.946 126.054 116.219 121.933 117.504 120.667L122.551 123.114C128.952 116.81 131.61 110.566 135.508 105.014C137.675 101.927 137.205 104.784 142.309 102.427C143.805 101.736 146.35 98.4186 148.265 97.5607C150.989 96.341 152.246 102.58 154.841 101.078C157.742 99.3979 158.795 95.6812 160.871 93.9634C162.477 92.6357 165.176 93.4701 166.793 91.3003C168.782 88.6313 171.045 82.3823 173.67 80.5497C175.659 79.1609 178.411 83.4224 180.098 83.3698C182.491 83.2952 183.645 79.4747 185.237 81.0399C188.917 84.6581 189.867 95.6039 195.275 92.9382C198.439 91.378 199 86.1382 200.826 84.2136C202.658 82.2828 204.992 86.9333 206.223 84.8402C207.815 82.1337 208.709 74.2877 210.924 70.8605C213.001 67.6472 216.324 68.8285 219.967 66.8892C220.705 66.4963 221.059 62.3848 222.001 59.0802C222.769 56.3892 224.465 57.1231 225.208 54.2923C225.968 51.3981 225.768 44.9407 225.891 42.3375C226.193 35.9877 232.129 38.0683 232.403 32.9719C232.726 26.9633 237.288 26.9752 241.793 22.971C243.202 21.7192 244.543 25.0641 247.105 25.1693C250.018 25.2888 250.967 21.5363 253.837 20.9975C255.759 20.6366 256.991 23.7103 258.814 22.971C263.669 21.0025 266.484 2.58677 271.568 1.43564C274.501 0.771414 275.103 6.21598 278.085 6.5532C280.678 6.84641 282.177 23.4328 284.827 22.971C286.306 22.7133 287.422 20.0904 288.962 19.4541C291.319 18.4805 292.016 19.9136 294.46 19.4541C296.388 19.0917 298.292 15.7363 300.584 14.9796C302.93 14.205 304.747 16.0404 306.435 16.6967C306.435 16.6967 310.436 20.7975 312.205 20.9975C313.369 21.129 315.377 17.3851 317.352 16.6967C318.649 16.2449 320.545 20.9975 320.545 20.9975C323.63 22.1971 322.421 25.9452 325.13 27.9155C327.221 29.436 329.928 33.6088 331.619 35.6118C334.361 38.8606 337.148 46.4691 337.148 46.4691V198.38Z" fill="#775DA6"/>
<path d="M1.14844 62.6483C2.56912 62.3799 5.21597 65.1168 8.18937 65.188C10.4222 65.2414 12.6912 62.3104 15.5808 63.6638C17.1763 64.4111 18.795 67.1136 20.8791 67.4218C22.643 67.6826 24.8301 65.5729 26.6919 65.8781C29.1295 66.2777 29.7762 84.7377 31.6977 84.681C32.9845 84.6431 35.4567 79.8719 35.9789 80.3986C39.605 84.0556 41.9685 93.05 42.1584 93.7868C49.4033 121.905 44.5913 78.4265 54.8182 100.708C55.417 102.013 58.109 98.7087 58.8631 99.9199C62.922 106.439 60.9263 101.711 67.6969 104.816C72.3497 106.95 72.1258 105.524 76.1317 102.234C76.3201 102.08 80.8495 119.873 86.8922 117.257C89.3648 116.186 92.1813 116.118 94.4337 114.598C100.995 110.169 103.932 130.273 109.962 125.068C111.008 124.166 112.534 127.881 113.582 126.983C114.946 125.816 116.219 121.703 117.504 120.44L122.551 122.882C128.952 116.59 131.61 110.358 135.508 104.816C137.675 101.735 137.205 104.587 142.309 102.234C143.805 101.544 146.35 98.2335 148.265 97.3772C150.989 96.1598 152.246 102.387 154.841 100.887C157.742 99.2109 158.795 95.5013 160.871 93.7868C162.477 92.4616 165.176 93.2944 166.793 91.1288C168.782 88.4649 171.045 82.2277 173.67 80.3986C175.659 79.0125 178.411 83.2658 180.098 83.2134C182.491 83.1389 183.645 79.3257 185.237 80.8879C188.917 84.4992 189.867 95.4241 195.275 92.7635C198.439 91.2063 199 85.9765 200.826 84.0556C202.658 82.1284 204.992 86.7701 206.223 84.681C207.815 81.9796 208.709 74.1486 210.924 70.728C213.001 67.5207 216.324 68.6999 219.967 66.7642C220.705 66.3721 221.059 62.2684 222.001 58.9701C222.769 56.2843 224.465 57.0168 225.208 54.1914C225.968 51.3027 225.768 44.8576 225.891 42.2594C226.193 35.9217 232.129 37.9983 232.403 32.9116C232.726 26.9145 237.288 26.9264 241.793 22.9298C243.202 21.6804 244.543 25.019 247.105 25.1239C250.018 25.2432 250.967 21.4979 253.837 20.9601C255.759 20.5998 256.991 23.6677 258.814 22.9298C263.669 20.9651 266.484 2.58446 271.568 1.43553C274.501 0.772574 275.103 6.20675 278.085 6.54333C280.678 6.83598 282.177 23.3908 284.827 22.9298C286.306 22.6726 287.422 20.0547 288.962 19.4196C291.319 18.4478 292.016 19.8783 294.46 19.4196C296.388 19.0579 298.292 15.7089 300.584 14.9537C302.93 14.1805 304.747 16.0125 306.435 16.6675C306.435 16.6675 310.436 20.7605 312.205 20.9601C313.369 21.0913 315.377 17.3546 317.352 16.6675C318.649 16.2165 320.545 20.9601 320.545 20.9601C323.63 22.1574 322.421 25.8984 325.13 27.8649C327.221 29.3825 329.928 33.5473 331.619 35.5465C334.361 38.7891 335.794 42.1681 337.148 46.3831" stroke="#775DA6" stroke-width="2"/>
</svg>
