<svg width="26" height="27" viewBox="0 0 26 27" fill="none" xmlns="http://www.w3.org/2000/svg">
<rect x="0.31543" y="0.885773" width="25.6488" height="25.6488" rx="6.00038" fill="#EFEFEF"/>
<path d="M16.2146 8.97124H6.78467V17.1438H16.2146V8.97124Z" stroke="black" stroke-width="1.00006" stroke-linecap="round" stroke-linejoin="round"/>
<path d="M16.2148 12.115H18.7295L20.6155 14.0009V17.1443H16.2148V12.115Z" stroke="black" stroke-width="1.00006" stroke-linecap="round" stroke-linejoin="round"/>
<path d="M9.61365 20.2867C10.4816 20.2867 11.1853 19.583 11.1853 18.715C11.1853 17.847 10.4816 17.1434 9.61365 17.1434C8.74565 17.1434 8.04199 17.847 8.04199 18.715C8.04199 19.583 8.74565 20.2867 9.61365 20.2867Z" stroke="black" stroke-width="1.00006" stroke-linecap="round" stroke-linejoin="round"/>
<path d="M17.7865 20.2867C18.6545 20.2867 19.3582 19.583 19.3582 18.715C19.3582 17.847 18.6545 17.1434 17.7865 17.1434C16.9185 17.1434 16.2148 17.847 16.2148 18.715C16.2148 19.583 16.9185 20.2867 17.7865 20.2867Z" stroke="black" stroke-width="1.00006" stroke-linecap="round" stroke-linejoin="round"/>
</svg>
