<svg width="25" height="25" viewBox="0 0 25 25" fill="none" xmlns="http://www.w3.org/2000/svg">
<path fill-rule="evenodd" clip-rule="evenodd" d="M22.1001 5.6283C22.1001 6.7333 21.2051 7.6283 20.1001 7.6283C18.9951 7.6283 18.1001 6.7333 18.1001 5.6283C18.1001 4.5233 18.9951 3.6283 20.1001 3.6283C21.2051 3.6283 22.1001 4.5233 22.1001 5.6283ZM22.1001 8.6283H21.1261H19.0741H18.1001C16.9951 8.6283 16.1001 9.5233 16.1001 10.6283V16.6283H18.1001V19.6283V21.6283C18.1001 22.1803 18.5481 22.6283 19.1001 22.6283H21.1001C21.6521 22.6283 22.1001 22.1803 22.1001 21.6283V19.6283V16.6283H24.1001V10.6283C24.1001 9.5233 23.2051 8.6283 22.1001 8.6283Z" fill="#475569"/>
<path fill-rule="evenodd" clip-rule="evenodd" d="M6.1001 5.6283C6.1001 6.7333 5.2051 7.6283 4.1001 7.6283C2.9951 7.6283 2.1001 6.7333 2.1001 5.6283C2.1001 4.5233 2.9951 3.6283 4.1001 3.6283C5.2051 3.6283 6.1001 4.5233 6.1001 5.6283ZM6.1001 8.6283H5.1261H3.0741H2.1001C0.995098 8.6283 0.100098 9.5233 0.100098 10.6283V16.6283H2.1001V19.6283V21.6283C2.1001 22.1803 2.5481 22.6283 3.1001 22.6283H5.1001C5.6521 22.6283 6.1001 22.1803 6.1001 21.6283V19.6283V16.6283H8.1001V10.6283C8.1001 9.5233 7.2051 8.6283 6.1001 8.6283Z" fill="#475569"/>
<path fill-rule="evenodd" clip-rule="evenodd" d="M9.1001 3.6283C9.1001 5.2853 10.4431 6.6283 12.1001 6.6283C13.7571 6.6283 15.1001 5.2853 15.1001 3.6283C15.1001 1.9713 13.7571 0.628296 12.1001 0.628296C10.4431 0.628296 9.1001 1.9713 9.1001 3.6283ZM9.1001 23.6283C9.1001 24.1803 9.5481 24.6283 10.1001 24.6283H14.1001C14.6521 24.6283 15.1001 24.1803 15.1001 23.6283V17.6283H18.1001V11.6283C18.1001 9.9713 16.7571 8.6283 15.1001 8.6283H9.1001C7.4431 8.6283 6.1001 9.9713 6.1001 11.6283V17.6283H9.1001V23.6283Z" fill="#94A3B8"/>
</svg>
