<svg width="22" height="22" viewBox="0 0 22 22" fill="none" xmlns="http://www.w3.org/2000/svg">
<rect x="0.453125" y="0.609772" width="21.3726" height="21.3726" rx="5" fill="#EFEFEF"/>
<path d="M16.034 16.8029V15.5792C16.034 14.9301 15.7761 14.3076 15.3171 13.8487C14.8582 13.3897 14.2357 13.1319 13.5866 13.1319H8.69196C8.04289 13.1319 7.4204 13.3897 6.96144 13.8487C6.50247 14.3076 6.24463 14.9301 6.24463 15.5792V16.8029" stroke="black" stroke-width="0.973292" stroke-linecap="round" stroke-linejoin="round"/>
<path d="M11.1392 10.6844C12.4909 10.6844 13.5866 9.58865 13.5866 8.23702C13.5866 6.8854 12.4909 5.78969 11.1392 5.78969C9.7876 5.78969 8.69189 6.8854 8.69189 8.23702C8.69189 9.58865 9.7876 10.6844 11.1392 10.6844Z" stroke="black" stroke-width="0.973292" stroke-linecap="round" stroke-linejoin="round"/>
</svg>
