<svg width="26" height="26" viewBox="0 0 26 26" fill="none" xmlns="http://www.w3.org/2000/svg">
<rect x="0.31543" y="0.0925903" width="25.6486" height="25.6486" rx="6.00032" fill="#EFEFEF"/>
<path d="M10.5706 20.0949C10.9177 20.0949 11.1992 19.8134 11.1992 19.4662C11.1992 19.119 10.9177 18.8376 10.5706 18.8376C10.2234 18.8376 9.94189 19.119 9.94189 19.4662C9.94189 19.8134 10.2234 20.0949 10.5706 20.0949Z" stroke="#404040" stroke-width="0.996054" stroke-linecap="round" stroke-linejoin="round"/>
<path d="M17.4851 20.0949C17.8323 20.0949 18.1138 19.8134 18.1138 19.4662C18.1138 19.119 17.8323 18.8376 17.4851 18.8376C17.1379 18.8376 16.8564 19.119 16.8564 19.4662C16.8564 19.8134 17.1379 20.0949 17.4851 20.0949Z" stroke="#404040" stroke-width="0.996054" stroke-linecap="round" stroke-linejoin="round"/>
<path d="M5.54053 6.89261H8.05515L9.73995 15.3103C9.79744 15.5997 9.9549 15.8597 10.1848 16.0448C10.4146 16.2298 10.7022 16.3281 10.9973 16.3225H17.1078C17.4028 16.3281 17.6905 16.2298 17.9203 16.0448C18.1502 15.8597 18.3076 15.5997 18.3651 15.3103L19.371 10.0359H8.68381" stroke="#404040" stroke-width="0.996054" stroke-linecap="round" stroke-linejoin="round"/>
</svg>
