<svg width="24" height="25" viewBox="0 0 24 25" fill="none" xmlns="http://www.w3.org/2000/svg">
<path fill-rule="evenodd" clip-rule="evenodd" d="M18.0001 12.6283C18.0001 10.9714 19.3432 9.6283 21.0001 9.6283C22.6569 9.6283 24.0001 10.9714 24.0001 12.6283C24.0001 14.2852 22.6569 15.6283 21.0001 15.6283C20.5544 15.6261 20.1149 15.5236 19.7142 15.3284L12.7072 22.3354L11.293 20.9212L18.3 13.9142C18.1048 13.5135 18.0023 13.074 18.0001 12.6283Z" fill="#475569"/>
<path fill-rule="evenodd" clip-rule="evenodd" d="M10.7142 18.9282L4.70718 12.9211L3.29297 14.3354L9.30001 20.3424C9.10478 20.7431 9.00227 21.1826 9.00008 21.6283C9.00008 23.2851 10.3432 24.6282 12.0001 24.6282C13.6569 24.6282 15.0001 23.2851 15.0001 21.6283C15.0001 19.9714 13.6569 18.6282 12.0001 18.6282C11.5544 18.6304 11.1149 18.733 10.7142 18.9282Z" fill="#94A3B8"/>
<path fill-rule="evenodd" clip-rule="evenodd" d="M12.7071 4.33536L11.2929 2.92114L4.28586 9.92818C3.88518 9.73295 3.4457 9.63044 3 9.62825C1.34315 9.62825 0 10.9714 0 12.6283C0 14.2851 1.34315 15.6282 3 15.6282C4.65685 15.6282 6 14.2851 6 12.6283C5.99781 12.1826 5.89529 11.7431 5.70007 11.3424L12.7071 4.33536Z" fill="#475569"/>
<path fill-rule="evenodd" clip-rule="evenodd" d="M12 6.6283C12.4457 6.6261 12.8852 6.52359 13.2859 6.32837L18.2924 11.3349C18.588 10.7171 19.0888 10.2163 19.7066 9.92067L14.7001 4.91415C14.8953 4.51348 14.9978 4.07399 15 3.6283C15 1.97144 13.6569 0.628296 12 0.628296C10.3431 0.628296 9 1.97144 9 3.6283C9 5.28515 10.3431 6.6283 12 6.6283Z" fill="#94A3B8"/>
</svg>
