<svg width="24" height="25" viewBox="0 0 24 25" fill="none" xmlns="http://www.w3.org/2000/svg">
<path d="M12 0.628296C5.383 0.628296 0 6.0113 0 12.6283C0 19.2453 5.383 24.6283 12 24.6283C18.617 24.6283 24 19.2453 24 12.6283C24 6.0113 18.617 0.628296 12 0.628296Z" fill="#FFBA52"/>
<path d="M12 3.6283C7.03725 3.6283 3 7.66555 3 12.6283C3 17.591 7.03725 21.6283 12 21.6283C16.9627 21.6283 21 17.591 21 12.6283C21 7.66555 16.9627 3.6283 12 3.6283Z" fill="#555555"/>
<path d="M12 15.6283C10.346 15.6283 9 14.2823 9 12.6283C9 12.1663 9.113 11.7343 9.3 11.3433L6 6.6283L10.714 9.9293C11.106 9.7423 11.538 9.6283 12 9.6283C13.654 9.6283 15 10.9743 15 12.6283C15 14.2823 13.654 15.6283 12 15.6283Z" fill="#C7D2FE"/>
</svg>
