<svg width="23" height="24" viewBox="0 0 23 24" fill="none" xmlns="http://www.w3.org/2000/svg">
<path d="M20 7.6283C19.5858 7.6283 19.25 7.29251 19.25 6.8783C19.25 6.04987 18.5784 5.3783 17.75 5.3783C17.3358 5.3783 17 5.04251 17 4.6283C17 4.21408 17.3358 3.8783 17.75 3.8783C18.5784 3.8783 19.25 3.20672 19.25 2.3783C19.25 1.96408 19.5858 1.6283 20 1.6283C20.4142 1.6283 20.75 1.96408 20.75 2.3783C20.75 3.20672 21.4216 3.8783 22.25 3.8783C22.6642 3.8783 23 4.21408 23 4.6283C23 5.04251 22.6642 5.3783 22.25 5.3783C21.4216 5.3783 20.75 6.04987 20.75 6.8783C20.75 7.07721 20.671 7.26797 20.5303 7.40863C20.3897 7.54928 20.1989 7.6283 20 7.6283Z" fill="#475569"/>
<path d="M4 23.6283C3.58579 23.6283 3.25 23.2925 3.25 22.8783C3.25 22.0499 2.57843 21.3783 1.75 21.3783C1.33579 21.3783 1 21.0425 1 20.6283C1 20.2141 1.33579 19.8783 1.75 19.8783C2.57843 19.8783 3.25 19.2067 3.25 18.3783C3.25 17.9641 3.58579 17.6283 4 17.6283C4.41421 17.6283 4.75 17.9641 4.75 18.3783C4.75 19.2067 5.42157 19.8783 6.25 19.8783C6.66421 19.8783 7 20.2141 7 20.6283C7 21.0425 6.66421 21.3783 6.25 21.3783C5.42157 21.3783 4.75 22.0499 4.75 22.8783C4.75 23.2925 4.41421 23.6283 4 23.6283Z" fill="#475569"/>
<path d="M17 23.6283C16.4477 23.6283 16 23.1806 16 22.6283C16 20.4192 14.2091 18.6283 12 18.6283C11.4477 18.6283 11 18.1806 11 17.6283C11 17.076 11.4477 16.6283 12 16.6283C14.2091 16.6283 16 14.8374 16 12.6283C16 12.076 16.4477 11.6283 17 11.6283C17.5523 11.6283 18 12.076 18 12.6283C18 14.8374 19.7909 16.6283 22 16.6283C22.5523 16.6283 23 17.076 23 17.6283C23 18.1806 22.5523 18.6283 22 18.6283C19.7909 18.6283 18 20.4192 18 22.6283C18 23.1806 17.5523 23.6283 17 23.6283Z" fill="#94A3B8"/>
<path d="M7 13.6283C6.44772 13.6283 6 13.1806 6 12.6283C6 10.4192 4.20914 8.6283 2 8.6283C1.64273 8.6283 1.31261 8.4377 1.13397 8.1283C0.955342 7.81889 0.955342 7.4377 1.13397 7.1283C1.31261 6.81889 1.64273 6.6283 2 6.6283C4.20914 6.6283 6 4.83744 6 2.6283C6 2.07601 6.44772 1.6283 7 1.6283C7.55228 1.6283 8 2.07601 8 2.6283C8 4.83744 9.79086 6.6283 12 6.6283C12.5523 6.6283 13 7.07601 13 7.6283C13 8.18058 12.5523 8.6283 12 8.6283C9.79086 8.6283 8 10.4192 8 12.6283C8 13.1806 7.55228 13.6283 7 13.6283Z" fill="#94A3B8"/>
</svg>
