<svg width="23" height="24" viewBox="0 0 23 24" fill="none" xmlns="http://www.w3.org/2000/svg">
<path d="M14.5 7.6283C19.1946 7.6283 23 10.8123 23 14.7394C23 16.3367 22.3625 17.8061 21.3 18.9927V23.6283L17.1919 21.4807C16.3453 21.7172 15.4418 21.8505 14.5 21.8505C9.80545 21.8505 6 18.6665 6 14.7394C6 10.8123 9.80545 7.6283 14.5 7.6283Z" fill="#475569"/>
<path d="M11 1.6283C5.477 1.6283 1 5.2103 1 9.6283C1 11.4253 1.75 13.0783 3 14.4133V19.6283L7.833 17.2123C8.829 17.4783 9.892 17.6283 11 17.6283C16.523 17.6283 21 14.0463 21 9.6283C21 5.2103 16.523 1.6283 11 1.6283Z" fill="#94A3B8"/>
</svg>
