<svg width="22" height="23" viewBox="0 0 22 23" fill="none" xmlns="http://www.w3.org/2000/svg">
<path d="M11 22.6283C8.08262 22.6283 5.28473 21.4694 3.22183 19.4065C1.15893 17.3436 1.299e-06 14.5457 1.42652e-06 11.6283C1.55405e-06 8.71091 1.15893 5.91302 3.22183 3.85012C5.28473 1.78722 8.08262 0.628295 11 0.628295C13.9174 0.628296 16.7153 1.78722 18.7782 3.85012C20.8411 5.91302 22 8.71092 22 11.6283C22 14.5457 20.8411 17.3436 18.7782 19.4065C16.7153 21.4694 13.9174 22.6283 11 22.6283ZM15.8125 12.3158C15.9948 12.3158 16.1697 12.2434 16.2986 12.1144C16.4276 11.9855 16.5 11.8106 16.5 11.6283C16.5 11.446 16.4276 11.2711 16.2986 11.1422C16.1697 11.0132 15.9948 10.9408 15.8125 10.9408L7.84713 10.9408L10.7993 7.99005C10.9283 7.86095 11.0009 7.68586 11.0009 7.5033C11.0009 7.32073 10.9283 7.14564 10.7993 7.01655C10.6702 6.88745 10.4951 6.81493 10.3125 6.81493C10.1299 6.81493 9.95485 6.88745 9.82575 7.01655L5.70075 11.1415C5.63673 11.2054 5.58593 11.2813 5.55127 11.3648C5.51661 11.4483 5.49877 11.5379 5.49877 11.6283C5.49877 11.7187 5.51661 11.8083 5.55127 11.8918C5.58593 11.9753 5.63673 12.0512 5.70075 12.115L9.82575 16.24C9.95484 16.3691 10.1299 16.4417 10.3125 16.4417C10.4951 16.4417 10.6702 16.3691 10.7993 16.24C10.9283 16.111 11.0009 15.9359 11.0009 15.7533C11.0009 15.5707 10.9283 15.3956 10.7993 15.2665L7.84713 12.3158L15.8125 12.3158Z" fill="#475569"/>
</svg>
