<svg width="25" height="25" viewBox="0 0 25 25" fill="none" xmlns="http://www.w3.org/2000/svg">
<path fill-rule="evenodd" clip-rule="evenodd" d="M12.1484 8.37952C13.2484 8.37952 14.1484 7.47952 14.1484 6.37952C14.1484 5.27952 13.2484 4.37952 12.1484 4.37952C11.0484 4.37952 10.1484 5.27952 10.1484 6.37952C10.1484 7.47952 11.0484 8.37952 12.1484 8.37952ZM12.1484 10.3795C11.0484 10.3795 10.1484 11.2795 10.1484 12.3795C10.1484 13.4795 11.0484 14.3795 12.1484 14.3795C13.2484 14.3795 14.1484 13.4795 14.1484 12.3795C14.1484 11.2795 13.2484 10.3795 12.1484 10.3795ZM12.1484 16.3795C11.0484 16.3795 10.1484 17.2795 10.1484 18.3795C10.1484 19.4795 11.0484 20.3795 12.1484 20.3795C13.2484 20.3795 14.1484 19.4795 14.1484 18.3795C14.1484 17.2795 13.2484 16.3795 12.1484 16.3795Z" fill="#898989"/>
</svg>
